# xmcd
#
# Track frame offsets:
# 150
# 18206
# 32785
# 46098
# 63349
# 81221
# 97861
# 116384
# 133046
# 143687
#
# Disc length: 2115 seconds
#
#
# Revision: 0
# Processed by: cddbd v1.5.1PL0 Copyright (c) Steve Scherf et al.
# Submitted via: FreeRIP 2.943 
#
DISCID=7408410a
DTITLE=Collin Raye - Super Hits - Super Hits
DYEAR=2002
DGENRE=Country
TTITLE0=Little Rock
TTITLE1=In This Life
TTITLE2=My Kind Of Girl
TTITLE3=That Was A River
TTITLE4=Not That Different
TTITLE5=I Can Still Feel You
TTITLE6=One Boy, One Girl
TTITLE7=Couldn't Last A Moment
TTITLE8=If I Were You
TTITLE9=Love Me
EXTD=
EXTT0=
EXTT1=
EXTT2=
EXTT3=
EXTT4=
EXTT5=
EXTT6=
EXTT7=
EXTT8=
EXTT9=
PLAYORDER=
